# xmcd CD database file
#
# Track frame offsets:
#	150
#	10957
#	25281
#	49449
#	70990
#	88000
#	109341
#	121886
#	135738
#	152070
#	165503
#	186372
#	203105
#
# Disc length: 2931 seconds
#
# Revision: 3
# Processed by: cddbd v1.4PL0 Copyright (c) Steve Scherf et al.
# Submitted via: CDex 1.50
#
DISCID=b60b710d
DTITLE=Thievery Corporation - The Mirror Conspiracy
DYEAR=2000
DGENRE=Electronic
TTITLE0=Treasures
TTITLE1=Le Monde
TTITLE2=Indra
TTITLE3=Labanese Blonde
TTITLE4=Focus On Sight
TTITLE5=Air Batucada
TTITLE6=So Com Voce
TTITLE7=Samba Tranquille
TTITLE8=Shadows Of Ourselves
TTITLE9=The Hong Kong Triad
TTITLE10=Illumination
TTITLE11=The Mirror Consipiracy
TTITLE12=Tomorrow
EXTD=YEAR: 2000
EXTT0=
EXTT1=
EXTT2=
EXTT3=
EXTT4=
EXTT5=
EXTT6=
EXTT7=
EXTT8=
EXTT9=
EXTT10=
EXTT11=
EXTT12=
PLAYORDER=
